<svg width="24" height="24" viewBox="0 0 24 24" fill="none" xmlns="http://www.w3.org/2000/svg">
  <title>Telegram</title>
  <path d="M21.944 2.485a1.5 1.5 0 0 0-1.6-.22L2.6 9.485a1.5 1.5 0 0 0 .13 2.8l4.6 1.5 1.7 5.1a1.5 1.5 0 0 0 2.8.13l2.1-4.2 4.6 1.5a1.5 1.5 0 0 0 2.8-.13l3-15a1.5 1.5 0 0 0-.09-1.1zM9.7 17.1l-1.5-4.5 7.6-7.6-6.1 8.2 4.5 1.5-4.5 1.4zm9.6-2.6l-4.6-1.5-2.1 4.2a.5.5 0 0 1-.9-.04l-1.7-5.1-4.6-1.5a.5.5 0 0 1-.04-.9l17.7-7.2a.5.5 0 0 1 .7.6l-3 15a.5.5 0 0 1-.6.39z" fill="#0088cc"/>
</svg>
