<svg width="24" height="24" viewBox="0 0 24 24" fill="none" xmlns="http://www.w3.org/2000/svg">
  <title>Twitter</title>
  <path d="M22.46 5.924c-.793.352-1.645.59-2.54.698a4.48 4.48 0 0 0 1.965-2.475 8.94 8.94 0 0 1-2.828 1.082A4.48 4.48 0 0 0 16.11 4c-2.48 0-4.49 2.014-4.49 4.496 0 .353.04.697.116 1.027C7.728 9.37 4.1 7.6 1.67 4.905a4.48 4.48 0 0 0-.607 2.263c0 1.563.796 2.942 2.008 3.75a4.48 4.48 0 0 1-2.034-.563v.057c0 2.184 1.553 4.006 3.617 4.422a4.49 4.49 0 0 1-2.027.077c.572 1.785 2.23 3.084 4.195 3.12A8.98 8.98 0 0 1 2 19.54a12.68 12.68 0 0 0 6.88 2.017c8.253 0 12.77-6.837 12.77-12.77 0-.195-.004-.39-.013-.583A9.14 9.14 0 0 0 24 4.59a8.98 8.98 0 0 1-2.54.698z" fill="#1DA1F2"/>
</svg>
